<svg xmlns="http://www.w3.org/2000/svg" xmlns:xlink="http://www.w3.org/1999/xlink" id="visual" version="1.1" viewBox="0 0 900 120.3"><path d="M0 114L21.5 111.2C43 108.3 86 102.7 128.8 105.3C171.7 108 214.3 119 257.2 120.2C300 121.3 343 112.7 385.8 108.3C428.7 104 471.3 104 514.2 102.2C557 100.3 600 96.7 642.8 98.2C685.7 99.7 728.3 106.3 771.2 108.5C814 110.7 857 108.3 878.5 107.2L900 106L900 0L878.5 0C857 0 814 0 771.2 0C728.3 0 685.7 0 642.8 0C600 0 557 0 514.2 0C471.3 0 428.7 0 385.8 0C343 0 300 0 257.2 0C214.3 0 171.7 0 128.8 0C86 0 43 0 21.5 0L0 0Z" fill="#48d048"/><path d="M0 81L21.5 82C43 83 86 85 128.8 88.5C171.7 92 214.3 97 257.2 97.2C300 97.3 343 92.7 385.8 89C428.7 85.3 471.3 82.7 514.2 84.8C557 87 600 94 642.8 96.5C685.7 99 728.3 97 771.2 95.2C814 93.3 857 91.7 878.5 90.8L900 90L900 0L878.5 0C857 0 814 0 771.2 0C728.3 0 685.7 0 642.8 0C600 0 557 0 514.2 0C471.3 0 428.7 0 385.8 0C343 0 300 0 257.2 0C214.3 0 171.7 0 128.8 0C86 0 43 0 21.5 0L0 0Z" fill="#6ddd77"/><path d="M0 76L21.5 75.2C43 74.3 86 72.7 128.8 72.3C171.7 72 214.3 73 257.2 72.5C300 72 343 70 385.8 70.8C428.7 71.7 471.3 75.3 514.2 76.7C557 78 600 77 642.8 74.8C685.7 72.7 728.3 69.3 771.2 66.3C814 63.3 857 60.7 878.5 59.3L900 58L900 0L878.5 0C857 0 814 0 771.2 0C728.3 0 685.7 0 642.8 0C600 0 557 0 514.2 0C471.3 0 428.7 0 385.8 0C343 0 300 0 257.2 0C214.3 0 171.7 0 128.8 0C86 0 43 0 21.5 0L0 0Z" fill="#90e8a0"/><path d="M0 48L21.5 47.2C43 46.3 86 44.7 128.8 46.7C171.7 48.7 214.3 54.3 257.2 56C300 57.7 343 55.3 385.8 52.7C428.7 50 471.3 47 514.2 46.8C557 46.7 600 49.3 642.8 49.2C685.7 49 728.3 46 771.2 46.7C814 47.3 857 51.7 878.5 53.8L900 56L900 0L878.5 0C857 0 814 0 771.2 0C728.3 0 685.7 0 642.8 0C600 0 557 0 514.2 0C471.3 0 428.7 0 385.8 0C343 0 300 0 257.2 0C214.3 0 171.7 0 128.8 0C86 0 43 0 21.5 0L0 0Z" fill="#b5f3c5"/><path d="M0 26L21.5 28C43 30 86 34 128.8 33.8C171.7 33.7 214.3 29.3 257.2 27.8C300 26.3 343 27.7 385.8 27C428.7 26.3 471.3 23.7 514.2 22.2C557 20.7 600 20.3 642.8 21C685.7 21.7 728.3 23.3 771.2 23.3C814 23.3 857 21.7 878.5 20.8L900 20L900 0L878.5 0C857 0 814 0 771.2 0C728.3 0 685.7 0 642.8 0C600 0 557 0 514.2 0C471.3 0 428.7 0 385.8 0C343 0 300 0 257.2 0C214.3 0 171.7 0 128.8 0C86 0 43 0 21.5 0L0 0Z" fill="#dcfce7"/></svg>