<svg xmlns="http://www.w3.org/2000/svg" xmlns:xlink="http://www.w3.org/1999/xlink" id="visual" version="1.1" viewBox="0 0 900 133.55"><path d="M0 131L18.8 128.2C37.7 125.3 75.3 119.7 112.8 116.3C150.3 113 187.7 112 225.2 108.7C262.7 105.3 300.3 99.7 337.8 99.5C375.3 99.3 412.7 104.7 450.2 110.7C487.7 116.7 525.3 123.3 562.8 122.8C600.3 122.3 637.7 114.7 675.2 116.3C712.7 118 750.3 129 787.8 132.3C825.3 135.7 862.7 131.3 881.3 129.2L900 127L900 0L881.3 0C862.7 0 825.3 0 787.8 0C750.3 0 712.7 0 675.2 0C637.7 0 600.3 0 562.8 0C525.3 0 487.7 0 450.2 0C412.7 0 375.3 0 337.8 0C300.3 0 262.7 0 225.2 0C187.7 0 150.3 0 112.8 0C75.3 0 37.7 0 18.8 0L0 0Z" fill="#9cdd9c"/><path d="M0 80L18.8 80.8C37.7 81.7 75.3 83.3 112.8 89.2C150.3 95 187.7 105 225.2 108.3C262.7 111.7 300.3 108.3 337.8 104.3C375.3 100.3 412.7 95.7 450.2 96.2C487.7 96.7 525.3 102.3 562.8 99.8C600.3 97.3 637.7 86.7 675.2 80.5C712.7 74.3 750.3 72.7 787.8 73.8C825.3 75 862.7 79 881.3 81L900 83L900 0L881.3 0C862.7 0 825.3 0 787.8 0C750.3 0 712.7 0 675.2 0C637.7 0 600.3 0 562.8 0C525.3 0 487.7 0 450.2 0C412.7 0 375.3 0 337.8 0C300.3 0 262.7 0 225.2 0C187.7 0 150.3 0 112.8 0C75.3 0 37.7 0 18.8 0L0 0Z" fill="#65a467"/><path d="M0 95L18.8 88C37.7 81 75.3 67 112.8 60.5C150.3 54 187.7 55 225.2 57.2C262.7 59.3 300.3 62.7 337.8 66.2C375.3 69.7 412.7 73.3 450.2 72.3C487.7 71.3 525.3 65.7 562.8 63.7C600.3 61.7 637.7 63.3 675.2 67.5C712.7 71.7 750.3 78.3 787.8 81.2C825.3 84 862.7 83 881.3 82.5L900 82L900 0L881.3 0C862.7 0 825.3 0 787.8 0C750.3 0 712.7 0 675.2 0C637.7 0 600.3 0 562.8 0C525.3 0 487.7 0 450.2 0C412.7 0 375.3 0 337.8 0C300.3 0 262.7 0 225.2 0C187.7 0 150.3 0 112.8 0C75.3 0 37.7 0 18.8 0L0 0Z" fill="#2f6e35"/><path d="M0 41L18.8 41.2C37.7 41.3 75.3 41.7 112.8 43.8C150.3 46 187.7 50 225.2 49.3C262.7 48.7 300.3 43.3 337.8 40.2C375.3 37 412.7 36 450.2 40.7C487.7 45.3 525.3 55.7 562.8 58.5C600.3 61.3 637.7 56.7 675.2 52C712.7 47.3 750.3 42.7 787.8 45.2C825.3 47.7 862.7 57.3 881.3 62.2L900 67L900 0L881.3 0C862.7 0 825.3 0 787.8 0C750.3 0 712.7 0 675.2 0C637.7 0 600.3 0 562.8 0C525.3 0 487.7 0 450.2 0C412.7 0 375.3 0 337.8 0C300.3 0 262.7 0 225.2 0C187.7 0 150.3 0 112.8 0C75.3 0 37.7 0 18.8 0L0 0Z" fill="#003c06"/><path d="M0 25L18.8 25.7C37.7 26.3 75.3 27.7 112.8 26.7C150.3 25.7 187.7 22.3 225.2 22C262.7 21.7 300.3 24.3 337.8 27.7C375.3 31 412.7 35 450.2 35.5C487.7 36 525.3 33 562.8 29.5C600.3 26 637.7 22 675.2 24C712.7 26 750.3 34 787.8 35C825.3 36 862.7 30 881.3 27L900 24L900 0L881.3 0C862.7 0 825.3 0 787.8 0C750.3 0 712.7 0 675.2 0C637.7 0 600.3 0 562.8 0C525.3 0 487.7 0 450.2 0C412.7 0 375.3 0 337.8 0C300.3 0 262.7 0 225.2 0C187.7 0 150.3 0 112.8 0C75.3 0 37.7 0 18.8 0L0 0Z" fill="#000000"/></svg>