<svg xmlns="http://www.w3.org/2000/svg" xmlns:xlink="http://www.w3.org/1999/xlink" width="500" zoomAndPan="magnify" viewBox="0 0 375 374.999991" height="500" preserveAspectRatio="xMidYMid meet" version="1.2"><defs><clipPath id="566f75b9bd"><path d="M 4.230469 4.230469 L 371.730469 4.230469 L 371.730469 371.730469 L 4.230469 371.730469 Z M 4.230469 4.230469 "/></clipPath><clipPath id="e682c6fcb8"><path d="M 9.8125 9.8125 L 366.0625 9.8125 L 366.0625 366.0625 L 9.8125 366.0625 Z M 9.8125 9.8125 "/></clipPath><clipPath id="74753e153b"><path d="M 7.019531 7.019531 L 369 7.019531 L 369 369 L 7.019531 369 Z M 7.019531 7.019531 "/></clipPath><clipPath id="36c2eab961"><path d="M 171 32.109375 L 205 32.109375 L 205 353.859375 L 171 353.859375 Z M 171 32.109375 "/></clipPath><clipPath id="d0f3f481c5"><path d="M 197 42 L 371.730469 42 L 371.730469 135 L 197 135 Z M 197 42 "/></clipPath><clipPath id="6e2ae508f6"><path d="M 4.230469 42 L 179 42 L 179 135 L 4.230469 135 Z M 4.230469 42 "/></clipPath><clipPath id="72c6c5718d"><path d="M 171 29.640625 L 205 29.640625 L 205 346.140625 L 171 346.140625 Z M 171 29.640625 "/></clipPath><clipPath id="3ab8774ae1"><path d="M 197 39 L 369.269531 39 L 369.269531 131 L 197 131 Z M 197 39 "/></clipPath><clipPath id="729318409e"><path d="M 7.019531 39 L 179 39 L 179 131 L 7.019531 131 Z M 7.019531 39 "/></clipPath><clipPath id="081031c628"><path d="M 171 37.5 L 204 37.5 L 204 339 L 171 339 Z M 171 37.5 "/></clipPath><clipPath id="dc25f0341c"><path d="M 196 47 L 359.574219 47 L 359.574219 134 L 196 134 Z M 196 47 "/></clipPath><clipPath id="e2241fa827"><path d="M 15.324219 47 L 179 47 L 179 134 L 15.324219 134 Z M 15.324219 47 "/></clipPath></defs><g id="bb59a80503"><g clip-rule="nonzero" clip-path="url(#566f75b9bd)"><path style=" stroke:none;fill-rule:nonzero;fill:#040606;fill-opacity:1;" d="M 187.96875 4.230469 C 86.601562 4.230469 4.230469 86.601562 4.230469 187.96875 C 4.230469 289.332031 86.601562 371.707031 187.96875 371.707031 C 289.332031 371.707031 371.707031 289.332031 371.707031 187.96875 C 371.707031 86.601562 289.332031 4.230469 187.96875 4.230469 Z M 187.96875 18.363281 C 281.714844 18.363281 357.570312 94.222656 357.570312 187.96875 C 357.570312 281.714844 281.714844 357.570312 187.96875 357.570312 C 94.222656 357.570312 18.363281 281.714844 18.363281 187.96875 C 18.363281 94.222656 94.222656 18.363281 187.96875 18.363281 Z M 187.96875 18.363281 "/></g><g clip-rule="nonzero" clip-path="url(#e682c6fcb8)"><path style=" stroke:none;fill-rule:nonzero;fill:#040606;fill-opacity:1;" d="M 187.9375 9.8125 C 89.667969 9.8125 9.8125 89.667969 9.8125 187.9375 C 9.8125 286.207031 89.667969 366.0625 187.9375 366.0625 C 286.207031 366.0625 366.0625 286.207031 366.0625 187.9375 C 366.0625 89.667969 286.207031 9.8125 187.9375 9.8125 Z M 187.9375 23.515625 C 278.820312 23.515625 352.359375 97.054688 352.359375 187.9375 C 352.359375 278.820312 278.820312 352.359375 187.9375 352.359375 C 97.054688 352.359375 23.515625 278.820312 23.515625 187.9375 C 23.515625 97.054688 97.054688 23.515625 187.9375 23.515625 Z M 187.9375 23.515625 "/></g><g clip-rule="nonzero" clip-path="url(#74753e153b)"><path style=" stroke:none;fill-rule:nonzero;fill:#a3d39d;fill-opacity:1;" d="M 187.96875 7.019531 C 88.144531 7.019531 7.019531 88.144531 7.019531 187.96875 C 7.019531 287.796875 88.144531 368.917969 187.96875 368.917969 C 287.796875 368.917969 368.917969 287.796875 368.917969 187.96875 C 368.917969 88.144531 287.796875 7.019531 187.96875 7.019531 Z M 187.96875 20.941406 C 280.292969 20.941406 355 95.648438 355 187.96875 C 355 280.292969 280.292969 355 187.96875 355 C 95.648438 355 20.941406 280.292969 20.941406 187.96875 C 20.941406 95.648438 95.648438 20.941406 187.96875 20.941406 Z M 187.96875 20.941406 "/></g><g clip-rule="nonzero" clip-path="url(#36c2eab961)"><path style=" stroke:none;fill-rule:nonzero;fill:#040606;fill-opacity:1;" d="M 204.859375 48.988281 C 204.859375 39.660156 197.300781 32.101562 187.980469 32.101562 C 178.65625 32.101562 171.097656 39.660156 171.097656 48.988281 C 171.097656 55.507812 174.792969 61.164062 180.199219 63.976562 L 174 63.976562 L 174 68.960938 L 176.167969 68.960938 L 179.570312 79.761719 L 178.984375 79.761719 L 178.984375 83.640625 L 180.910156 83.640625 L 185.808594 351.734375 C 185.828125 352.917969 186.796875 353.867188 187.980469 353.867188 C 189.164062 353.867188 190.128906 352.917969 190.152344 351.734375 L 195.046875 83.640625 L 196.976562 83.640625 L 196.976562 79.761719 L 196.386719 79.761719 L 199.789062 68.960938 L 201.957031 68.960938 L 201.957031 63.976562 L 195.757812 63.976562 C 201.164062 61.164062 204.859375 55.507812 204.859375 48.988281 "/></g><path style=" stroke:none;fill-rule:nonzero;fill:#040606;fill-opacity:1;" d="M 166.195312 141.140625 C 169.355469 145.570312 176.15625 142.75 174.542969 148.175781 C 172.933594 153.601562 166.484375 156.972656 157.695312 156.53125 C 148.902344 156.09375 146.851562 153.160156 143.921875 154.917969 C 140.992188 156.679688 142.75 157.851562 146.558594 159.613281 C 150.367188 161.371094 206.78125 182.042969 215.570312 186.878906 C 224.363281 191.71875 229.664062 194.824219 230.515625 207.699219 C 232.078125 231.324219 163.886719 237.324219 163.886719 260.328125 C 163.886719 274.792969 206.246094 286.238281 206.246094 308.527344 C 206.246094 318.148438 186.152344 329.296875 185.398438 336.84375 C 184.332031 347.5 191.171875 351.035156 189.199219 352.25 C 187.96875 353.003906 181.804688 348.847656 180.554688 345.066406 C 175.328125 329.28125 198.671875 318.171875 198.867188 308.867188 C 199.101562 297.601562 155.351562 280.851562 153.882812 267.949219 C 152.421875 255.050781 152.277344 238.628906 185.902344 226.023438 C 219.527344 213.414062 219.234375 209.308594 218.355469 206.378906 C 217.476562 203.445312 212.054688 198.460938 200.625 194.796875 C 189.199219 191.132812 141.871094 173.976562 133.226562 170.605469 C 124.582031 167.234375 117.109375 160.636719 118.574219 152.867188 C 120.039062 145.097656 130.847656 138.929688 147.585938 139.378906 C 153.886719 139.550781 153.007812 136.15625 158.28125 137.179688 C 163.554688 138.207031 164.726562 139.085938 166.195312 141.140625 "/><path style=" stroke:none;fill-rule:nonzero;fill:#040606;fill-opacity:1;" d="M 209.765625 141.140625 C 206.601562 145.570312 199.800781 142.75 201.414062 148.175781 C 203.023438 153.601562 209.472656 156.972656 218.261719 156.53125 C 227.054688 156.09375 229.105469 153.160156 232.035156 154.917969 C 234.964844 156.679688 233.210938 157.851562 229.398438 159.613281 C 225.589844 161.371094 169.179688 182.042969 160.386719 186.878906 C 151.597656 191.71875 146.292969 194.824219 145.441406 207.699219 C 143.878906 231.324219 212.074219 237.324219 212.074219 260.328125 C 212.074219 274.792969 169.710938 286.238281 169.710938 308.527344 C 169.710938 318.148438 189.804688 329.296875 190.558594 336.84375 C 191.625 347.5 184.789062 351.035156 186.761719 352.25 C 187.988281 353.003906 194.152344 348.847656 195.40625 345.066406 C 200.632812 329.28125 177.289062 318.171875 177.09375 308.867188 C 176.855469 297.601562 220.609375 280.851562 222.074219 267.949219 C 223.539062 255.050781 223.679688 238.628906 190.058594 226.023438 C 156.429688 213.414062 156.722656 209.308594 157.601562 206.378906 C 158.484375 203.445312 163.902344 198.460938 175.332031 194.796875 C 186.761719 191.132812 234.085938 173.976562 242.730469 170.605469 C 251.378906 167.234375 258.847656 160.636719 257.382812 152.867188 C 255.917969 145.097656 245.113281 138.929688 228.375 139.378906 C 222.070312 139.550781 222.953125 136.15625 217.679688 137.179688 C 212.402344 138.207031 211.230469 139.085938 209.765625 141.140625 "/><g clip-rule="nonzero" clip-path="url(#d0f3f481c5)"><path style=" stroke:none;fill-rule:nonzero;fill:#040606;fill-opacity:1;" d="M 371.523438 75.824219 C 354.324219 77.480469 309.65625 63.246094 309.65625 63.246094 C 309.65625 63.246094 311.308594 62.917969 315.28125 61.261719 C 306.015625 61.59375 278.558594 50.007812 273.265625 47.691406 C 267.972656 45.371094 255.398438 38.089844 238.195312 46.035156 C 220.992188 53.980469 224.300781 69.535156 219.671875 77.148438 C 215.039062 84.765625 210.40625 87.410156 197.503906 88.40625 L 197.503906 109.257812 C 213.054688 140.703125 226.949219 133.421875 226.949219 133.421875 C 226.949219 133.421875 225.625 131.4375 219.671875 123.160156 C 226.949219 133.421875 242.828125 130.773438 242.828125 130.773438 C 242.828125 130.773438 242.828125 130.773438 234.886719 121.835938 C 244.8125 131.105469 258.378906 127.132812 258.378906 127.132812 C 258.378906 127.132812 253.746094 122.5 249.445312 117.203125 C 266.648438 128.457031 280.210938 120.84375 280.210938 120.84375 C 280.210938 120.84375 280.210938 120.84375 268.632812 113.5625 C 290.136719 123.824219 304.03125 113.5625 304.03125 113.5625 C 304.03125 113.5625 301.714844 112.898438 294.105469 108.597656 C 310.316406 113.5625 320.90625 107.273438 324.875 102.308594 C 324.875 102.308594 322.558594 102.636719 313.625 98.667969 C 343.070312 104.625 345.386719 89.726562 345.386719 89.726562 C 345.386719 89.726562 345.386719 89.726562 334.46875 86.085938 C 344.722656 86.417969 364.90625 83.4375 371.523438 75.824219 "/></g><g clip-rule="nonzero" clip-path="url(#6e2ae508f6)"><path style=" stroke:none;fill-rule:nonzero;fill:#040606;fill-opacity:1;" d="M 4.433594 75.824219 C 21.636719 77.480469 66.300781 63.246094 66.300781 63.246094 C 66.300781 63.246094 64.648438 62.917969 60.679688 61.261719 C 69.941406 61.59375 97.398438 50.007812 102.691406 47.691406 C 107.988281 45.371094 120.558594 38.089844 137.761719 46.035156 C 154.964844 53.980469 151.65625 69.535156 156.289062 77.148438 C 160.917969 84.765625 165.550781 87.410156 178.453125 88.40625 L 178.453125 109.257812 C 162.902344 140.703125 149.007812 133.421875 149.007812 133.421875 C 149.007812 133.421875 150.332031 131.4375 156.289062 123.160156 C 149.007812 133.421875 133.128906 130.773438 133.128906 130.773438 C 133.128906 130.773438 133.128906 130.773438 141.070312 121.835938 C 131.144531 131.105469 117.582031 127.132812 117.582031 127.132812 C 117.582031 127.132812 122.210938 122.5 126.515625 117.203125 C 109.308594 128.457031 95.746094 120.84375 95.746094 120.84375 C 95.746094 120.84375 95.746094 120.84375 107.324219 113.5625 C 85.820312 123.824219 71.925781 113.5625 71.925781 113.5625 C 71.925781 113.5625 74.242188 112.898438 81.851562 108.597656 C 65.640625 113.5625 55.054688 107.273438 51.082031 102.308594 C 51.082031 102.308594 53.398438 102.636719 62.332031 98.667969 C 32.886719 104.625 30.574219 89.726562 30.574219 89.726562 C 30.574219 89.726562 30.574219 89.726562 41.492188 86.085938 C 31.234375 86.417969 11.054688 83.4375 4.433594 75.824219 "/></g><g clip-rule="nonzero" clip-path="url(#72c6c5718d)"><path style=" stroke:none;fill-rule:nonzero;fill:#040606;fill-opacity:1;" d="M 204.785156 46.246094 C 204.785156 37.070312 197.335938 29.632812 188.144531 29.632812 C 178.957031 29.632812 171.507812 37.070312 171.507812 46.246094 C 171.507812 52.660156 175.148438 58.21875 180.480469 60.988281 L 174.367188 60.988281 L 174.367188 65.890625 L 176.503906 65.890625 L 179.855469 76.515625 L 179.277344 76.515625 L 179.277344 80.332031 L 181.179688 80.332031 L 186.003906 344.050781 C 186.027344 345.214844 186.980469 346.148438 188.144531 346.148438 C 189.3125 346.148438 190.265625 345.214844 190.285156 344.050781 L 195.113281 80.332031 L 197.011719 80.332031 L 197.011719 76.515625 L 196.433594 76.515625 L 199.785156 65.890625 L 201.921875 65.890625 L 201.921875 60.988281 L 195.8125 60.988281 C 201.144531 58.21875 204.785156 52.660156 204.785156 46.246094 "/></g><path style=" stroke:none;fill-rule:nonzero;fill:#040606;fill-opacity:1;" d="M 166.671875 136.890625 C 169.789062 141.25 176.492188 138.476562 174.902344 143.8125 C 173.316406 149.148438 166.960938 152.46875 158.296875 152.035156 C 149.628906 151.601562 147.605469 148.71875 144.71875 150.445312 C 141.832031 152.179688 143.5625 153.332031 147.316406 155.0625 C 151.074219 156.792969 206.675781 177.125 215.34375 181.886719 C 224.007812 186.644531 229.234375 189.699219 230.074219 202.363281 C 231.613281 225.605469 164.398438 231.507812 164.398438 254.132812 C 164.398438 268.367188 206.152344 279.621094 206.152344 301.546875 C 206.152344 311.011719 186.34375 321.980469 185.601562 329.402344 C 184.550781 339.886719 191.292969 343.363281 189.347656 344.554688 C 188.136719 345.296875 182.058594 341.210938 180.824219 337.488281 C 175.675781 321.964844 198.683594 311.035156 198.875 301.882812 C 199.109375 290.800781 155.984375 274.324219 154.539062 261.632812 C 153.09375 248.945312 152.953125 232.792969 186.097656 220.390625 C 219.242188 207.988281 218.953125 203.949219 218.085938 201.066406 C 217.21875 198.179688 211.878906 193.277344 200.613281 189.671875 C 189.347656 186.066406 142.699219 169.195312 134.175781 165.878906 C 125.65625 162.5625 118.289062 156.070312 119.734375 148.429688 C 121.175781 140.785156 131.828125 134.71875 148.328125 135.160156 C 154.539062 135.328125 153.671875 131.988281 158.871094 133 C 164.070312 134.007812 165.226562 134.871094 166.671875 136.890625 "/><path style=" stroke:none;fill-rule:nonzero;fill:#040606;fill-opacity:1;" d="M 209.617188 136.890625 C 206.503906 141.25 199.796875 138.476562 201.386719 143.8125 C 202.976562 149.148438 209.332031 152.46875 217.996094 152.035156 C 226.660156 151.601562 228.683594 148.71875 231.574219 150.445312 C 234.460938 152.179688 232.730469 153.332031 228.972656 155.0625 C 225.21875 156.792969 169.613281 177.125 160.949219 181.886719 C 152.285156 186.644531 147.054688 189.699219 146.21875 202.363281 C 144.675781 225.605469 211.894531 231.507812 211.894531 254.132812 C 211.894531 268.367188 170.136719 279.621094 170.136719 301.546875 C 170.136719 311.011719 189.945312 321.980469 190.691406 329.402344 C 191.738281 339.886719 185 343.363281 186.945312 344.554688 C 188.15625 345.296875 194.230469 341.210938 195.464844 337.488281 C 200.617188 321.964844 177.609375 311.035156 177.414062 301.882812 C 177.179688 290.800781 220.308594 274.324219 221.753906 261.632812 C 223.195312 248.945312 223.335938 232.792969 190.195312 220.390625 C 157.046875 207.988281 157.335938 203.949219 158.203125 201.066406 C 159.070312 198.179688 164.414062 193.277344 175.679688 189.671875 C 186.945312 186.066406 233.59375 169.195312 242.117188 165.878906 C 250.636719 162.5625 258.003906 156.070312 256.558594 148.429688 C 255.113281 140.785156 244.460938 134.71875 227.960938 135.160156 C 221.75 135.328125 222.617188 131.988281 217.417969 133 C 212.21875 134.007812 211.0625 134.871094 209.617188 136.890625 "/><g clip-rule="nonzero" clip-path="url(#3ab8774ae1)"><path style=" stroke:none;fill-rule:nonzero;fill:#040606;fill-opacity:1;" d="M 369.066406 72.644531 C 352.109375 74.273438 308.082031 60.269531 308.082031 60.269531 C 308.082031 60.269531 309.710938 59.945312 313.625 58.316406 C 304.496094 58.644531 277.429688 47.246094 272.210938 44.96875 C 266.992188 42.6875 254.601562 35.523438 237.644531 43.339844 C 220.6875 51.152344 223.949219 66.457031 219.382812 73.945312 C 214.820312 81.4375 210.253906 84.039062 197.535156 85.019531 L 197.535156 105.53125 C 212.863281 136.464844 226.558594 129.300781 226.558594 129.300781 C 226.558594 129.300781 225.253906 127.347656 219.382812 119.207031 C 226.558594 129.300781 242.210938 126.695312 242.210938 126.695312 C 242.210938 126.695312 242.210938 126.695312 234.382812 117.90625 C 244.167969 127.023438 257.539062 123.113281 257.539062 123.113281 C 257.539062 123.113281 252.972656 118.554688 248.730469 113.347656 C 265.691406 124.417969 279.058594 116.929688 279.058594 116.929688 C 279.058594 116.929688 279.058594 116.929688 267.644531 109.765625 C 288.84375 119.855469 302.539062 109.765625 302.539062 109.765625 C 302.539062 109.765625 300.257812 109.113281 292.753906 104.878906 C 308.734375 109.765625 319.167969 103.578125 323.082031 98.695312 C 323.082031 98.695312 320.800781 99.019531 311.996094 95.113281 C 341.019531 100.972656 343.300781 86.320312 343.300781 86.320312 C 343.300781 86.320312 343.300781 86.320312 332.539062 82.738281 C 342.648438 83.0625 362.539062 80.132812 369.066406 72.644531 "/></g><g clip-rule="nonzero" clip-path="url(#729318409e)"><path style=" stroke:none;fill-rule:nonzero;fill:#040606;fill-opacity:1;" d="M 7.226562 72.644531 C 24.179688 74.273438 68.210938 60.269531 68.210938 60.269531 C 68.210938 60.269531 66.578125 59.945312 62.664062 58.316406 C 71.796875 58.644531 98.863281 47.246094 104.078125 44.96875 C 109.296875 42.6875 121.6875 35.523438 138.648438 43.339844 C 155.605469 51.152344 152.34375 66.457031 156.90625 73.945312 C 161.472656 81.4375 166.039062 84.039062 178.753906 85.019531 L 178.753906 105.53125 C 163.429688 136.464844 149.734375 129.300781 149.734375 129.300781 C 149.734375 129.300781 151.039062 127.347656 156.90625 119.207031 C 149.734375 129.300781 134.082031 126.695312 134.082031 126.695312 C 134.082031 126.695312 134.082031 126.695312 141.90625 117.90625 C 132.125 127.023438 118.753906 123.113281 118.753906 123.113281 C 118.753906 123.113281 123.320312 118.554688 127.558594 113.347656 C 110.601562 124.417969 97.230469 116.929688 97.230469 116.929688 C 97.230469 116.929688 97.230469 116.929688 108.644531 109.765625 C 87.449219 119.855469 73.753906 109.765625 73.753906 109.765625 C 73.753906 109.765625 76.035156 109.113281 83.535156 104.878906 C 67.558594 109.765625 57.121094 103.578125 53.207031 98.695312 C 53.207031 98.695312 55.492188 99.019531 64.296875 95.113281 C 35.273438 100.972656 32.992188 86.320312 32.992188 86.320312 C 32.992188 86.320312 32.992188 86.320312 43.753906 82.738281 C 33.644531 83.0625 13.75 80.132812 7.226562 72.644531 "/></g><g clip-rule="nonzero" clip-path="url(#081031c628)"><path style=" stroke:none;fill-rule:nonzero;fill:#ffffff;fill-opacity:1;" d="M 203.261719 53.304688 C 203.261719 44.570312 196.183594 37.492188 187.449219 37.492188 C 178.71875 37.492188 171.636719 44.570312 171.636719 53.304688 C 171.636719 59.40625 175.097656 64.699219 180.164062 67.335938 L 174.355469 67.335938 L 174.355469 72.003906 L 176.386719 72.003906 L 179.574219 82.113281 L 179.023438 82.113281 L 179.023438 85.742188 L 180.828125 85.742188 L 185.414062 336.730469 C 185.433594 337.835938 186.339844 338.726562 187.449219 338.726562 C 188.558594 338.726562 189.464844 337.835938 189.484375 336.730469 L 194.070312 85.742188 L 195.875 85.742188 L 195.875 82.113281 L 195.328125 82.113281 L 198.511719 72.003906 L 200.542969 72.003906 L 200.542969 67.335938 L 194.734375 67.335938 C 199.800781 64.699219 203.261719 59.40625 203.261719 53.304688 "/></g><path style=" stroke:none;fill-rule:nonzero;fill:#ffffff;fill-opacity:1;" d="M 167.042969 139.574219 C 170.003906 143.71875 176.375 141.082031 174.867188 146.160156 C 173.355469 151.238281 167.316406 154.398438 159.082031 153.984375 C 150.847656 153.574219 148.925781 150.828125 146.179688 152.472656 C 143.4375 154.121094 145.082031 155.21875 148.652344 156.867188 C 152.21875 158.511719 205.0625 177.867188 213.296875 182.394531 C 221.53125 186.925781 226.5 189.832031 227.296875 201.882812 C 228.757812 224.003906 164.882812 229.621094 164.882812 251.15625 C 164.882812 264.699219 204.5625 275.414062 204.5625 296.28125 C 204.5625 305.285156 185.738281 315.722656 185.03125 322.789062 C 184.035156 332.765625 190.441406 336.074219 188.59375 337.210938 C 187.441406 337.917969 181.667969 334.027344 180.492188 330.484375 C 175.597656 315.710938 197.464844 305.308594 197.648438 296.597656 C 197.871094 286.054688 156.886719 270.371094 155.511719 258.292969 C 154.140625 246.214844 154.007812 230.84375 185.503906 219.039062 C 217 207.238281 216.726562 203.394531 215.902344 200.648438 C 215.078125 197.902344 210.003906 193.238281 199.296875 189.804688 C 188.59375 186.375 144.261719 170.316406 136.164062 167.160156 C 128.066406 164.003906 121.066406 157.828125 122.4375 150.554688 C 123.808594 143.28125 133.933594 137.503906 149.613281 137.925781 C 155.515625 138.085938 154.691406 134.90625 159.632812 135.867188 C 164.574219 136.828125 165.671875 137.652344 167.042969 139.574219 "/><path style=" stroke:none;fill-rule:nonzero;fill:#ffffff;fill-opacity:1;" d="M 207.855469 139.574219 C 204.894531 143.71875 198.523438 141.082031 200.035156 146.160156 C 201.542969 151.238281 207.582031 154.398438 215.816406 153.984375 C 224.050781 153.574219 225.972656 150.828125 228.71875 152.472656 C 231.464844 154.121094 229.816406 155.21875 226.25 156.867188 C 222.679688 158.511719 169.839844 177.867188 161.605469 182.394531 C 153.371094 186.925781 148.402344 189.832031 147.605469 201.882812 C 146.140625 224.003906 210.019531 229.621094 210.019531 251.15625 C 210.019531 264.699219 170.335938 275.414062 170.335938 296.28125 C 170.335938 305.285156 189.160156 315.722656 189.867188 322.789062 C 190.863281 332.765625 184.460938 336.074219 186.308594 337.210938 C 187.460938 337.917969 193.234375 334.027344 194.40625 330.484375 C 199.300781 315.710938 177.4375 305.308594 177.253906 296.597656 C 177.03125 286.054688 218.015625 270.371094 219.386719 258.292969 C 220.757812 246.214844 220.894531 230.84375 189.394531 219.039062 C 157.898438 207.238281 158.171875 203.394531 158.996094 200.648438 C 159.820312 197.902344 164.898438 193.238281 175.601562 189.804688 C 186.308594 186.375 230.640625 170.316406 238.738281 167.160156 C 246.835938 164.003906 253.835938 157.828125 252.460938 150.554688 C 251.089844 143.28125 240.96875 137.503906 225.289062 137.925781 C 219.386719 138.085938 220.210938 134.90625 215.269531 135.867188 C 210.328125 136.828125 209.230469 137.652344 207.855469 139.574219 "/><g clip-rule="nonzero" clip-path="url(#dc25f0341c)"><path style=" stroke:none;fill-rule:nonzero;fill:#ffffff;fill-opacity:1;" d="M 359.378906 78.425781 C 343.265625 79.976562 301.425781 66.652344 301.425781 66.652344 C 301.425781 66.652344 302.976562 66.339844 306.695312 64.792969 C 298.015625 65.101562 272.296875 54.253906 267.339844 52.085938 C 262.378906 49.917969 250.605469 43.101562 234.488281 50.539062 C 218.375 57.976562 221.476562 72.539062 217.136719 79.667969 C 212.796875 86.796875 208.460938 89.273438 196.375 90.203125 L 196.375 109.726562 C 210.9375 139.167969 223.953125 132.347656 223.953125 132.347656 C 223.953125 132.347656 222.714844 130.488281 217.136719 122.742188 C 223.953125 132.347656 238.828125 129.871094 238.828125 129.871094 C 238.828125 129.871094 238.828125 129.871094 231.390625 121.503906 C 240.6875 130.179688 253.394531 126.460938 253.394531 126.460938 C 253.394531 126.460938 249.054688 122.121094 245.023438 117.164062 C 261.140625 127.703125 273.84375 120.574219 273.84375 120.574219 C 273.84375 120.574219 273.84375 120.574219 263 113.757812 C 283.140625 123.363281 296.15625 113.757812 296.15625 113.757812 C 296.15625 113.757812 293.988281 113.136719 286.859375 109.105469 C 302.046875 113.757812 311.960938 107.867188 315.679688 103.21875 C 315.679688 103.21875 313.511719 103.527344 305.144531 99.8125 C 332.726562 105.386719 334.894531 91.441406 334.894531 91.441406 C 334.894531 91.441406 334.894531 91.441406 324.667969 88.035156 C 334.273438 88.34375 353.175781 85.554688 359.378906 78.425781 "/></g><g clip-rule="nonzero" clip-path="url(#e2241fa827)"><path style=" stroke:none;fill-rule:nonzero;fill:#ffffff;fill-opacity:1;" d="M 15.523438 78.425781 C 31.632812 79.976562 73.472656 66.652344 73.472656 66.652344 C 73.472656 66.652344 71.925781 66.339844 68.207031 64.792969 C 76.882812 65.101562 102.605469 54.253906 107.5625 52.085938 C 112.519531 49.917969 124.296875 43.101562 140.410156 50.539062 C 156.523438 57.976562 153.425781 72.539062 157.765625 79.667969 C 162.101562 86.796875 166.441406 89.273438 178.527344 90.203125 L 178.527344 109.726562 C 163.960938 139.167969 150.945312 132.347656 150.945312 132.347656 C 150.945312 132.347656 152.1875 130.488281 157.765625 122.742188 C 150.945312 132.347656 136.074219 129.871094 136.074219 129.871094 C 136.074219 129.871094 136.074219 129.871094 143.511719 121.503906 C 134.214844 130.179688 121.507812 126.460938 121.507812 126.460938 C 121.507812 126.460938 125.84375 122.121094 129.875 117.164062 C 113.757812 127.703125 101.054688 120.574219 101.054688 120.574219 C 101.054688 120.574219 101.054688 120.574219 111.902344 113.757812 C 91.757812 123.363281 78.742188 113.757812 78.742188 113.757812 C 78.742188 113.757812 80.910156 113.136719 88.039062 109.105469 C 72.855469 113.757812 62.9375 107.867188 59.21875 103.21875 C 59.21875 103.21875 61.386719 103.527344 69.753906 99.8125 C 42.175781 105.386719 40.007812 91.441406 40.007812 91.441406 C 40.007812 91.441406 40.007812 91.441406 50.234375 88.035156 C 40.625 88.34375 21.722656 85.554688 15.523438 78.425781 "/></g></g></svg>