<svg xmlns="http://www.w3.org/2000/svg" xmlns:xlink="http://www.w3.org/1999/xlink" width="500" zoomAndPan="magnify" viewBox="0 0 375 374.999991" height="500" preserveAspectRatio="xMidYMid meet" version="1.2"><defs><clipPath id="3d825df1aa"><path d="M 3.816406 3.816406 L 371.316406 3.816406 L 371.316406 371.316406 L 3.816406 371.316406 Z M 3.816406 3.816406 "/></clipPath><clipPath id="c91d14dc4c"><path d="M 9.394531 9.394531 L 365.644531 9.394531 L 365.644531 365.644531 L 9.394531 365.644531 Z M 9.394531 9.394531 "/></clipPath><clipPath id="079b29db55"><path d="M 6.605469 6.605469 L 368.105469 6.605469 L 368.105469 368.105469 L 6.605469 368.105469 Z M 6.605469 6.605469 "/></clipPath><clipPath id="e01a3544d3"><path d="M 170 40.660156 L 204 40.660156 L 204 357.160156 L 170 357.160156 Z M 170 40.660156 "/></clipPath><clipPath id="117afbd842"><path d="M 6.605469 50 L 178 50 L 178 142 L 6.605469 142 Z M 6.605469 50 "/></clipPath></defs><g id="6d2ae1503c"><g clip-rule="nonzero" clip-path="url(#3d825df1aa)"><path style=" stroke:none;fill-rule:nonzero;fill:#040606;fill-opacity:1;" d="M 187.496094 3.816406 C 86.160156 3.816406 3.816406 86.160156 3.816406 187.496094 C 3.816406 288.828125 86.160156 371.175781 187.496094 371.175781 C 288.828125 371.175781 371.175781 288.828125 371.175781 187.496094 C 371.175781 86.160156 288.828125 3.816406 187.496094 3.816406 Z M 187.496094 17.945312 C 281.210938 17.945312 357.042969 93.777344 357.042969 187.496094 C 357.042969 281.210938 281.210938 357.042969 187.496094 357.042969 C 93.777344 357.042969 17.945312 281.210938 17.945312 187.496094 C 17.945312 93.777344 93.777344 17.945312 187.496094 17.945312 Z M 187.496094 17.945312 "/></g><g clip-rule="nonzero" clip-path="url(#c91d14dc4c)"><path style=" stroke:none;fill-rule:nonzero;fill:#040606;fill-opacity:1;" d="M 187.496094 9.394531 C 89.242188 9.394531 9.394531 89.242188 9.394531 187.496094 C 9.394531 285.753906 89.242188 365.597656 187.496094 365.597656 C 285.753906 365.597656 365.597656 285.753906 365.597656 187.496094 C 365.597656 89.242188 285.753906 9.394531 187.496094 9.394531 Z M 187.496094 23.097656 C 278.367188 23.097656 351.898438 96.628906 351.898438 187.496094 C 351.898438 278.367188 278.367188 351.898438 187.496094 351.898438 C 96.628906 351.898438 23.097656 278.367188 23.097656 187.496094 C 23.097656 96.628906 96.628906 23.097656 187.496094 23.097656 Z M 187.496094 23.097656 "/></g><g clip-rule="nonzero" clip-path="url(#079b29db55)"><path style=" stroke:none;fill-rule:nonzero;fill:#a3d39d;fill-opacity:1;" d="M 187.355469 6.605469 C 87.640625 6.605469 6.605469 87.640625 6.605469 187.355469 C 6.605469 287.070312 87.640625 368.105469 187.355469 368.105469 C 287.070312 368.105469 368.105469 287.070312 368.105469 187.355469 C 368.105469 87.640625 287.070312 6.605469 187.355469 6.605469 Z M 187.355469 20.507812 C 279.578125 20.507812 354.203125 95.132812 354.203125 187.355469 C 354.203125 279.578125 279.578125 354.203125 187.355469 354.203125 C 95.132812 354.203125 20.507812 279.578125 20.507812 187.355469 C 20.507812 95.132812 95.132812 20.507812 187.355469 20.507812 Z M 187.355469 20.507812 "/></g><g clip-rule="nonzero" clip-path="url(#e01a3544d3)"><path style=" stroke:none;fill-rule:nonzero;fill:#040606;fill-opacity:1;" d="M 203.960938 57.265625 C 203.960938 48.089844 196.523438 40.652344 187.355469 40.652344 C 178.1875 40.652344 170.75 48.089844 170.75 57.265625 C 170.75 63.679688 174.386719 69.242188 179.703125 72.011719 L 173.605469 72.011719 L 173.605469 76.914062 L 175.738281 76.914062 L 179.082031 87.539062 L 178.507812 87.539062 L 178.507812 91.351562 L 180.402344 91.351562 L 185.21875 355.070312 C 185.238281 356.234375 186.191406 357.167969 187.355469 357.167969 C 188.519531 357.167969 189.472656 356.234375 189.492188 355.070312 L 194.308594 91.351562 L 196.203125 91.351562 L 196.203125 87.539062 L 195.628906 87.539062 L 198.972656 76.914062 L 201.105469 76.914062 L 201.105469 72.011719 L 195.007812 72.011719 C 200.324219 69.242188 203.960938 63.679688 203.960938 57.265625 "/></g><path style=" stroke:none;fill-rule:nonzero;fill:#040606;fill-opacity:1;" d="M 165.925781 147.914062 C 169.035156 152.269531 175.726562 149.5 174.140625 154.835938 C 172.554688 160.171875 166.214844 163.488281 157.566406 163.054688 C 148.917969 162.621094 146.902344 159.738281 144.019531 161.46875 C 141.136719 163.199219 142.863281 164.351562 146.613281 166.082031 C 150.359375 167.8125 205.847656 188.148438 214.496094 192.90625 C 223.144531 197.664062 228.359375 200.722656 229.195312 213.386719 C 230.734375 236.625 163.65625 242.527344 163.65625 265.15625 C 163.65625 279.386719 205.324219 290.644531 205.324219 312.570312 C 205.324219 322.03125 185.558594 333 184.816406 340.421875 C 183.769531 350.90625 190.496094 354.382812 188.554688 355.578125 C 187.347656 356.320312 181.28125 352.234375 180.050781 348.511719 C 174.910156 332.984375 197.871094 322.054688 198.0625 312.90625 C 198.296875 301.824219 155.261719 285.347656 153.820312 272.65625 C 152.378906 259.964844 152.238281 243.8125 185.3125 231.410156 C 218.386719 219.007812 218.097656 214.96875 217.234375 212.085938 C 216.371094 209.203125 211.039062 204.300781 199.796875 200.695312 C 188.554688 197.089844 142 180.214844 133.496094 176.898438 C 124.996094 173.582031 117.644531 167.09375 119.085938 159.449219 C 120.527344 151.808594 131.15625 145.738281 147.621094 146.183594 C 153.820312 146.347656 152.953125 143.007812 158.140625 144.019531 C 163.332031 145.027344 164.484375 145.894531 165.925781 147.914062 "/><path style=" stroke:none;fill-rule:nonzero;fill:#040606;fill-opacity:1;" d="M 208.785156 147.914062 C 205.675781 152.269531 198.984375 149.5 200.570312 154.835938 C 202.15625 160.171875 208.496094 163.488281 217.144531 163.054688 C 225.792969 162.621094 227.808594 159.738281 230.691406 161.46875 C 233.574219 163.199219 231.84375 164.351562 228.097656 166.082031 C 224.351562 167.8125 168.863281 188.148438 160.214844 192.90625 C 151.566406 197.664062 146.351562 200.722656 145.515625 213.386719 C 143.976562 236.625 211.054688 242.527344 211.054688 265.15625 C 211.054688 279.386719 169.386719 290.644531 169.386719 312.570312 C 169.386719 322.03125 189.152344 333 189.894531 340.421875 C 190.941406 350.90625 184.214844 354.382812 186.15625 355.578125 C 187.363281 356.320312 193.429688 352.234375 194.660156 348.511719 C 199.800781 332.984375 176.839844 322.054688 176.648438 312.90625 C 176.414062 301.824219 219.449219 285.347656 220.890625 272.65625 C 222.332031 259.964844 222.472656 243.8125 189.398438 231.410156 C 156.324219 219.007812 156.609375 214.96875 157.476562 212.085938 C 158.339844 209.203125 163.671875 204.300781 174.914062 200.695312 C 186.15625 197.089844 232.710938 180.214844 241.210938 176.898438 C 249.714844 173.582031 257.066406 167.09375 255.625 159.449219 C 254.183594 151.808594 243.554688 145.738281 227.089844 146.183594 C 220.890625 146.347656 221.753906 143.007812 216.566406 144.019531 C 211.378906 145.027344 210.226562 145.894531 208.785156 147.914062 "/><path style=" stroke:none;fill-rule:nonzero;fill:#040606;fill-opacity:1;" d="M 367.898438 83.664062 C 350.980469 85.292969 307.042969 71.292969 307.042969 71.292969 C 307.042969 71.292969 308.667969 70.964844 312.574219 69.339844 C 303.460938 69.664062 276.453125 58.265625 271.246094 55.988281 C 266.039062 53.707031 253.671875 46.546875 236.75 54.359375 C 219.828125 62.175781 223.085938 77.476562 218.527344 84.96875 C 213.972656 92.457031 209.417969 95.0625 196.726562 96.039062 L 196.726562 116.550781 C 212.019531 147.484375 225.6875 140.320312 225.6875 140.320312 C 225.6875 140.320312 224.386719 138.367188 218.527344 130.226562 C 225.6875 140.320312 241.308594 137.71875 241.308594 137.71875 C 241.308594 137.71875 241.308594 137.71875 233.496094 128.925781 C 243.257812 138.042969 256.601562 134.136719 256.601562 134.136719 C 256.601562 134.136719 252.046875 129.578125 247.816406 124.367188 C 264.738281 135.4375 278.082031 127.949219 278.082031 127.949219 C 278.082031 127.949219 278.082031 127.949219 266.691406 120.785156 C 287.84375 130.878906 301.511719 120.785156 301.511719 120.785156 C 301.511719 120.785156 299.234375 120.132812 291.746094 115.902344 C 307.691406 120.785156 318.105469 114.597656 322.011719 109.714844 C 322.011719 109.714844 319.734375 110.039062 310.949219 106.132812 C 339.910156 111.992188 342.1875 97.339844 342.1875 97.339844 C 342.1875 97.339844 342.1875 97.339844 331.449219 93.757812 C 341.535156 94.085938 361.386719 91.152344 367.898438 83.664062 "/><g clip-rule="nonzero" clip-path="url(#117afbd842)"><path style=" stroke:none;fill-rule:nonzero;fill:#040606;fill-opacity:1;" d="M 6.8125 83.664062 C 23.730469 85.292969 67.667969 71.292969 67.667969 71.292969 C 67.667969 71.292969 66.042969 70.964844 62.136719 69.339844 C 71.246094 69.664062 98.257812 58.265625 103.464844 55.988281 C 108.671875 53.707031 121.035156 46.546875 137.960938 54.359375 C 154.882812 62.175781 151.625 77.476562 156.183594 84.96875 C 160.738281 92.457031 165.292969 95.0625 177.984375 96.039062 L 177.984375 116.550781 C 162.691406 147.484375 149.023438 140.320312 149.023438 140.320312 C 149.023438 140.320312 150.324219 138.367188 156.183594 130.226562 C 149.023438 140.320312 133.402344 137.71875 133.402344 137.71875 C 133.402344 137.71875 133.402344 137.71875 141.214844 128.925781 C 131.449219 138.042969 118.109375 134.136719 118.109375 134.136719 C 118.109375 134.136719 122.664062 129.578125 126.894531 124.367188 C 109.972656 135.4375 96.628906 127.949219 96.628906 127.949219 C 96.628906 127.949219 96.628906 127.949219 108.019531 120.785156 C 86.867188 130.878906 73.199219 120.785156 73.199219 120.785156 C 73.199219 120.785156 75.476562 120.132812 82.964844 115.902344 C 67.019531 120.785156 56.605469 114.597656 52.699219 109.714844 C 52.699219 109.714844 54.976562 110.039062 63.761719 106.132812 C 34.800781 111.992188 32.523438 97.339844 32.523438 97.339844 C 32.523438 97.339844 32.523438 97.339844 43.261719 93.757812 C 33.175781 94.085938 13.324219 91.152344 6.8125 83.664062 "/></g></g></svg>