<svg xmlns="http://www.w3.org/2000/svg" xmlns:xlink="http://www.w3.org/1999/xlink" width="700" zoomAndPan="magnify" viewBox="0 0 525 247.499998" height="330" preserveAspectRatio="xMidYMid meet" version="1.2"><defs><clipPath id="41ef3b97b9"><path d="M 428 15 L 524.46875 15 L 524.46875 123 L 428 123 Z M 428 15 "/></clipPath><clipPath id="f8bed3039b"><path d="M 325 86 L 449 86 L 449 207 L 325 207 Z M 325 86 "/></clipPath><clipPath id="08556939a2"><path d="M 261.273438 104.714844 L 404.570312 0.152344 L 509.132812 143.449219 L 365.835938 248.015625 Z M 261.273438 104.714844 "/></clipPath><clipPath id="39165eca59"><path d="M 261.273438 104.714844 L 404.570312 0.152344 L 509.132812 143.449219 L 365.835938 248.015625 Z M 261.273438 104.714844 "/></clipPath><clipPath id="634c84ac11"><path d="M 306 137 L 346 137 L 346 177 L 306 177 Z M 306 137 "/></clipPath><clipPath id="939b5fb945"><path d="M 261.273438 104.714844 L 404.570312 0.152344 L 509.132812 143.449219 L 365.835938 248.015625 Z M 261.273438 104.714844 "/></clipPath><clipPath id="35bdf279a0"><path d="M 261.273438 104.714844 L 404.570312 0.152344 L 509.132812 143.449219 L 365.835938 248.015625 Z M 261.273438 104.714844 "/></clipPath><clipPath id="ae5f844509"><path d="M 316 147 L 337 147 L 337 167 L 316 167 Z M 316 147 "/></clipPath><clipPath id="7d4cc63a47"><path d="M 261.273438 104.714844 L 404.570312 0.152344 L 509.132812 143.449219 L 365.835938 248.015625 Z M 261.273438 104.714844 "/></clipPath><clipPath id="732f267aa1"><path d="M 261.273438 104.714844 L 404.570312 0.152344 L 509.132812 143.449219 L 365.835938 248.015625 Z M 261.273438 104.714844 "/></clipPath><clipPath id="6074741c6b"><path d="M 347 28 L 439 28 L 439 112 L 347 112 Z M 347 28 "/></clipPath><clipPath id="e1ef8c4c66"><path d="M 261.273438 104.714844 L 404.570312 0.152344 L 509.132812 143.449219 L 365.835938 248.015625 Z M 261.273438 104.714844 "/></clipPath><clipPath id="8ce333d3e1"><path d="M 261.273438 104.714844 L 404.570312 0.152344 L 509.132812 143.449219 L 365.835938 248.015625 Z M 261.273438 104.714844 "/></clipPath><clipPath id="2533a86060"><path d="M 353 20 L 415 20 L 415 65 L 353 65 Z M 353 20 "/></clipPath><clipPath id="e2c31537a2"><path d="M 261.273438 104.714844 L 404.570312 0.152344 L 509.132812 143.449219 L 365.835938 248.015625 Z M 261.273438 104.714844 "/></clipPath><clipPath id="f55e8c2b69"><path d="M 261.273438 104.714844 L 404.570312 0.152344 L 509.132812 143.449219 L 365.835938 248.015625 Z M 261.273438 104.714844 "/></clipPath><clipPath id="c743684d63"><path d="M 0.527344 26 L 97 26 L 97 134 L 0.527344 134 Z M 0.527344 26 "/></clipPath></defs><g id="2717f2bf27"><g clip-rule="nonzero" clip-path="url(#41ef3b97b9)"><g style="fill:#7ed957;fill-opacity:1;"><g transform="translate(428.284255, 122.047622)"><path style="stroke:none" d="M 0 0 C 2.207031 -1.851562 3.988281 -4.671875 5.34375 -8.453125 C 6.695312 -12.234375 8.054688 -16.332031 9.421875 -20.75 C 11.554688 -28.03125 13.425781 -34.664062 15.03125 -40.65625 C 16.632812 -46.644531 18.0625 -52.472656 19.3125 -58.140625 C 20.5625 -63.816406 21.773438 -69.71875 22.953125 -75.84375 C 24.128906 -81.976562 25.394531 -88.753906 26.75 -96.171875 C 27.101562 -98.242188 27.101562 -100.273438 26.75 -102.265625 C 26.394531 -104.265625 25.609375 -105.835938 24.390625 -106.984375 L 71.78125 -106.984375 C 70.644531 -105.835938 69.878906 -104.265625 69.484375 -102.265625 C 69.085938 -100.273438 69.070312 -98.242188 69.4375 -96.171875 C 70.789062 -88.753906 72.054688 -81.976562 73.234375 -75.84375 C 74.410156 -69.71875 75.617188 -63.816406 76.859375 -58.140625 C 78.109375 -52.472656 79.535156 -46.644531 81.140625 -40.65625 C 82.753906 -34.664062 84.628906 -28.03125 86.765625 -20.75 C 88.117188 -16.332031 89.472656 -12.234375 90.828125 -8.453125 C 92.179688 -4.671875 93.960938 -1.851562 96.171875 0 L 52 0 C 53.207031 -1.425781 54.148438 -3.171875 54.828125 -5.234375 C 55.503906 -7.304688 55.84375 -9.445312 55.84375 -11.65625 C 55.84375 -13.4375 55.519531 -16.753906 54.875 -21.609375 C 54.238281 -26.460938 53.382812 -31.921875 52.3125 -37.984375 L 36.59375 -37.984375 C 38.445312 -33.484375 40.140625 -29.019531 41.671875 -24.59375 C 43.203125 -20.175781 43.96875 -15.757812 43.96875 -11.34375 C 43.96875 -9.695312 43.753906 -7.984375 43.328125 -6.203125 C 42.898438 -4.421875 42.132812 -2.941406 41.03125 -1.765625 C 39.925781 -0.585938 38.300781 0 36.15625 0 Z M 34.5625 -42.796875 L 51.359375 -42.796875 C 50.359375 -47.929688 49.25 -53.046875 48.03125 -58.140625 C 46.820312 -63.242188 45.519531 -67.898438 44.125 -72.109375 C 42.738281 -76.316406 41.3125 -79.6875 39.84375 -82.21875 C 38.382812 -84.75 36.90625 -86.015625 35.40625 -86.015625 C 33.550781 -86.015625 32.085938 -85.226562 31.015625 -83.65625 C 29.953125 -82.09375 29.1875 -80.046875 28.71875 -77.515625 C 28.257812 -74.984375 28.03125 -72.289062 28.03125 -69.4375 C 28.03125 -64.726562 28.6875 -60.160156 30 -55.734375 C 31.320312 -51.316406 32.84375 -47.003906 34.5625 -42.796875 Z M 34.5625 -42.796875 "/></g></g></g><g clip-rule="nonzero" clip-path="url(#f8bed3039b)"><g clip-rule="nonzero" clip-path="url(#08556939a2)"><g clip-rule="nonzero" clip-path="url(#39165eca59)"><path style=" stroke:none;fill-rule:nonzero;fill:#c1ff72;fill-opacity:1;" d="M 424.371094 87.007812 L 424.398438 86.953125 C 420.523438 93.761719 414.472656 98.992188 407.058594 101.847656 C 399.40625 104.804688 391.136719 104.882812 383.488281 102.179688 C 383.644531 102.234375 383.789062 102.3125 383.949219 102.363281 L 377.9375 105.859375 L 380.839844 111.59375 C 388.996094 114.347656 397.671875 114.605469 405.976562 112.402344 L 406.539062 113.867188 C 409.300781 121.027344 414.921875 127.632812 420.878906 134.628906 C 428.640625 143.746094 436.671875 153.171875 438.175781 163.832031 C 439.582031 173.84375 435.0625 183.714844 426.070312 190.277344 L 425.945312 190.367188 C 417.535156 196.445312 407.136719 198.179688 400.0625 194.6875 C 394.984375 192.175781 390.726562 186.832031 386.226562 181.183594 C 378.953125 172.050781 370.71875 161.703125 355.914062 158.394531 L 327.4375 152.019531 L 325.3125 161.53125 L 353.785156 167.902344 C 365.238281 170.46875 372.027344 179 378.601562 187.253906 C 383.570312 193.496094 388.710938 199.953125 395.742188 203.425781 C 406.125 208.554688 420.222656 206.53125 431.65625 198.265625 L 431.820312 198.144531 C 443.769531 189.429688 449.753906 176.109375 447.828125 162.472656 C 445.929688 149.011719 436.566406 138.011719 428.296875 128.308594 C 422.898438 121.96875 417.796875 115.976562 415.632812 110.367188 L 415.054688 108.871094 C 417.027344 107.847656 418.929688 106.726562 420.703125 105.433594 C 425.628906 101.832031 429.695312 97.199219 432.761719 91.835938 L 429.859375 86.070312 Z M 424.371094 87.007812 "/></g></g></g><g clip-rule="nonzero" clip-path="url(#634c84ac11)"><g clip-rule="nonzero" clip-path="url(#939b5fb945)"><g clip-rule="nonzero" clip-path="url(#35bdf279a0)"><path style=" stroke:none;fill-rule:nonzero;fill:#7ed957;fill-opacity:1;" d="M 322.074219 175.984375 C 311.566406 173.632812 304.957031 163.207031 307.304688 152.703125 C 309.65625 142.199219 320.082031 135.585938 330.585938 137.9375 C 341.09375 140.289062 347.703125 150.710938 345.351562 161.214844 C 343.003906 171.722656 332.578125 178.335938 322.074219 175.984375 Z M 322.074219 175.984375 "/></g></g></g><g clip-rule="nonzero" clip-path="url(#ae5f844509)"><g clip-rule="nonzero" clip-path="url(#7d4cc63a47)"><g clip-rule="nonzero" clip-path="url(#732f267aa1)"><path style=" stroke:none;fill-rule:nonzero;fill:#c1ff72;fill-opacity:1;" d="M 324.203125 166.472656 C 318.949219 165.296875 315.644531 160.082031 316.824219 154.832031 C 317.996094 149.578125 323.210938 146.273438 328.460938 147.449219 C 333.714844 148.625 337.019531 153.839844 335.84375 159.089844 C 334.667969 164.34375 329.453125 167.648438 324.203125 166.472656 Z M 324.203125 166.472656 "/></g></g></g><g clip-rule="nonzero" clip-path="url(#6074741c6b)"><g clip-rule="nonzero" clip-path="url(#e1ef8c4c66)"><g clip-rule="nonzero" clip-path="url(#8ce333d3e1)"><path style=" stroke:none;fill-rule:nonzero;fill:#7ed957;fill-opacity:1;" d="M 432.824219 91.859375 L 424.371094 87.007812 C 429.507812 78.039062 430.328125 67.375 426.617188 57.746094 L 421.355469 44.105469 C 419.421875 39.09375 413.769531 36.585938 408.753906 38.515625 L 405.25 29.417969 C 415.28125 25.554688 426.582031 30.566406 430.449219 40.597656 L 435.710938 54.234375 C 440.480469 66.621094 439.425781 80.328125 432.824219 91.859375 Z M 380.835938 111.609375 C 368.402344 107.425781 358.570312 98.019531 353.855469 85.796875 L 348.597656 72.15625 C 344.726562 62.125 349.746094 50.820312 359.769531 46.953125 L 363.277344 56.050781 C 358.253906 57.992188 355.757812 63.636719 357.691406 68.652344 L 362.953125 82.296875 C 366.613281 91.804688 374.265625 99.125 383.945312 102.375 Z M 380.835938 111.609375 "/></g></g></g><g clip-rule="nonzero" clip-path="url(#2533a86060)"><g clip-rule="nonzero" clip-path="url(#e2c31537a2)"><g clip-rule="nonzero" clip-path="url(#f55e8c2b69)"><path style=" stroke:none;fill-rule:nonzero;fill:#c1ff72;fill-opacity:1;" d="M 369.0625 64.261719 C 365.296875 65.714844 361.066406 63.835938 359.613281 60.070312 L 354.355469 46.429688 C 352.902344 42.664062 354.78125 38.433594 358.546875 36.980469 C 362.316406 35.527344 366.546875 37.40625 367.996094 41.175781 L 373.257812 54.8125 C 374.707031 58.582031 372.828125 62.8125 369.0625 64.261719 Z M 409.988281 48.484375 C 406.222656 49.9375 401.992188 48.058594 400.539062 44.292969 L 395.28125 30.652344 C 393.828125 26.886719 395.707031 22.65625 399.472656 21.203125 C 403.242188 19.753906 407.472656 21.628906 408.925781 25.394531 L 414.1875 39.035156 C 415.632812 42.804688 413.753906 47.035156 409.988281 48.484375 Z M 409.988281 48.484375 "/></g></g></g><g clip-rule="nonzero" clip-path="url(#c743684d63)"><g style="fill:#7ed957;fill-opacity:1;"><g transform="translate(0.537172, 133.29903)"><path style="stroke:none" d="M 0 0 C 2.207031 -1.851562 3.988281 -4.671875 5.34375 -8.453125 C 6.695312 -12.234375 8.054688 -16.332031 9.421875 -20.75 C 11.554688 -28.03125 13.425781 -34.664062 15.03125 -40.65625 C 16.632812 -46.644531 18.0625 -52.472656 19.3125 -58.140625 C 20.5625 -63.816406 21.773438 -69.71875 22.953125 -75.84375 C 24.128906 -81.976562 25.394531 -88.753906 26.75 -96.171875 C 27.101562 -98.242188 27.101562 -100.273438 26.75 -102.265625 C 26.394531 -104.265625 25.609375 -105.835938 24.390625 -106.984375 L 71.78125 -106.984375 C 70.644531 -105.835938 69.878906 -104.265625 69.484375 -102.265625 C 69.085938 -100.273438 69.070312 -98.242188 69.4375 -96.171875 C 70.789062 -88.753906 72.054688 -81.976562 73.234375 -75.84375 C 74.410156 -69.71875 75.617188 -63.816406 76.859375 -58.140625 C 78.109375 -52.472656 79.535156 -46.644531 81.140625 -40.65625 C 82.753906 -34.664062 84.628906 -28.03125 86.765625 -20.75 C 88.117188 -16.332031 89.472656 -12.234375 90.828125 -8.453125 C 92.179688 -4.671875 93.960938 -1.851562 96.171875 0 L 52 0 C 53.207031 -1.425781 54.148438 -3.171875 54.828125 -5.234375 C 55.503906 -7.304688 55.84375 -9.445312 55.84375 -11.65625 C 55.84375 -13.4375 55.519531 -16.753906 54.875 -21.609375 C 54.238281 -26.460938 53.382812 -31.921875 52.3125 -37.984375 L 36.59375 -37.984375 C 38.445312 -33.484375 40.140625 -29.019531 41.671875 -24.59375 C 43.203125 -20.175781 43.96875 -15.757812 43.96875 -11.34375 C 43.96875 -9.695312 43.753906 -7.984375 43.328125 -6.203125 C 42.898438 -4.421875 42.132812 -2.941406 41.03125 -1.765625 C 39.925781 -0.585938 38.300781 0 36.15625 0 Z M 34.5625 -42.796875 L 51.359375 -42.796875 C 50.359375 -47.929688 49.25 -53.046875 48.03125 -58.140625 C 46.820312 -63.242188 45.519531 -67.898438 44.125 -72.109375 C 42.738281 -76.316406 41.3125 -79.6875 39.84375 -82.21875 C 38.382812 -84.75 36.90625 -86.015625 35.40625 -86.015625 C 33.550781 -86.015625 32.085938 -85.226562 31.015625 -83.65625 C 29.953125 -82.09375 29.1875 -80.046875 28.71875 -77.515625 C 28.257812 -74.984375 28.03125 -72.289062 28.03125 -69.4375 C 28.03125 -64.726562 28.6875 -60.160156 30 -55.734375 C 31.320312 -51.316406 32.84375 -47.003906 34.5625 -42.796875 Z M 34.5625 -42.796875 "/></g></g></g><g style="fill:#7ed957;fill-opacity:1;"><g transform="translate(96.718194, 133.29903)"><path style="stroke:none" d="M 1.0625 -106.984375 L 44.1875 -106.984375 C 52.882812 -106.984375 59.851562 -105.609375 65.09375 -102.859375 C 70.34375 -100.117188 74.160156 -96.410156 76.546875 -91.734375 C 78.929688 -87.066406 80.125 -81.84375 80.125 -76.0625 C 80.125 -71.925781 79.570312 -67.84375 78.46875 -63.8125 C 77.363281 -59.78125 75.597656 -56.140625 73.171875 -52.890625 C 70.753906 -49.648438 67.65625 -47.050781 63.875 -45.09375 C 60.09375 -43.132812 55.523438 -42.15625 50.171875 -42.15625 C 46.109375 -42.15625 42.597656 -42.742188 39.640625 -43.921875 C 36.679688 -45.097656 34.128906 -46.554688 31.984375 -48.296875 C 29.847656 -50.046875 27.976562 -51.8125 26.375 -53.59375 C 24.769531 -55.382812 23.34375 -56.863281 22.09375 -58.03125 C 20.84375 -59.207031 19.613281 -59.796875 18.40625 -59.796875 C 16.976562 -59.796875 16.015625 -59.441406 15.515625 -58.734375 C 15.015625 -58.023438 14.765625 -57.238281 14.765625 -56.375 C 14.765625 -54.945312 15.507812 -53.519531 17 -52.09375 C 18.5 -50.675781 20.515625 -49.285156 23.046875 -47.921875 C 25.585938 -46.566406 28.390625 -45.265625 31.453125 -44.015625 C 34.515625 -42.773438 37.582031 -41.546875 40.65625 -40.328125 C 43.789062 -39.191406 47.125 -37.925781 50.65625 -36.53125 C 54.1875 -35.144531 57.628906 -33.59375 60.984375 -31.875 C 64.335938 -30.164062 67.367188 -28.238281 70.078125 -26.09375 C 72.785156 -23.957031 74.957031 -21.535156 76.59375 -18.828125 C 78.238281 -16.117188 79.0625 -13.085938 79.0625 -9.734375 C 79.0625 -6.304688 78.539062 -3.828125 77.5 -2.296875 C 76.46875 -0.765625 74.632812 0 72 0 L 48.890625 0 C 48.179688 0 47.488281 -0.175781 46.8125 -0.53125 C 46.132812 -0.882812 45.796875 -1.523438 45.796875 -2.453125 C 45.796875 -3.742188 45.953125 -4.867188 46.265625 -5.828125 C 46.585938 -6.796875 46.890625 -7.832031 47.171875 -8.9375 C 47.460938 -10.039062 47.609375 -11.484375 47.609375 -13.265625 C 47.609375 -15.617188 46.875 -18.097656 45.40625 -20.703125 C 43.945312 -23.304688 42.019531 -25.875 39.625 -28.40625 C 37.238281 -30.9375 34.65625 -33.320312 31.875 -35.5625 C 29.09375 -37.8125 26.382812 -39.8125 23.75 -41.5625 C 21.113281 -43.3125 18.757812 -44.6875 16.6875 -45.6875 C 14.625 -46.6875 13.160156 -47.1875 12.296875 -47.1875 C 11.585938 -47.1875 11.085938 -46.898438 10.796875 -46.328125 C 10.515625 -45.753906 10.375 -45.328125 10.375 -45.046875 C 10.375 -43.253906 11.066406 -41.644531 12.453125 -40.21875 C 13.847656 -38.800781 15.648438 -37.410156 17.859375 -36.046875 C 20.078125 -34.691406 22.414062 -33.25 24.875 -31.71875 C 27.332031 -30.1875 29.648438 -28.457031 31.828125 -26.53125 C 34.003906 -24.601562 35.785156 -22.351562 37.171875 -19.78125 C 38.566406 -17.21875 39.265625 -14.226562 39.265625 -10.8125 C 39.265625 -9.382812 38.992188 -7.832031 38.453125 -6.15625 C 37.921875 -4.476562 37.101562 -3.03125 36 -1.8125 C 34.894531 -0.601562 33.453125 0 31.671875 0 L 1.171875 0 C 2.597656 -1.425781 3.578125 -3.117188 4.109375 -5.078125 C 4.648438 -7.046875 4.921875 -9.5625 4.921875 -12.625 L 4.921875 -30.921875 L 4.8125 -53.5 L 4.8125 -94.359375 C 4.8125 -97.421875 4.539062 -99.929688 4 -101.890625 C 3.46875 -103.859375 2.488281 -105.554688 1.0625 -106.984375 Z M 37.984375 -84.625 C 35.265625 -84.625 32.300781 -84.515625 29.09375 -84.296875 C 25.882812 -84.085938 22.851562 -83.644531 20 -82.96875 C 17.15625 -82.289062 14.820312 -81.238281 13 -79.8125 C 11.175781 -78.382812 10.265625 -76.457031 10.265625 -74.03125 C 10.265625 -71.601562 11.226562 -69.691406 13.15625 -68.296875 C 15.082031 -66.910156 17.628906 -65.859375 20.796875 -65.140625 C 23.972656 -64.429688 27.429688 -63.96875 31.171875 -63.75 C 34.921875 -63.539062 38.648438 -63.4375 42.359375 -63.4375 C 46.066406 -63.4375 49.8125 -63.539062 53.59375 -63.75 C 57.375 -63.96875 60.851562 -64.429688 64.03125 -65.140625 C 67.207031 -65.859375 69.753906 -66.910156 71.671875 -68.296875 C 73.597656 -69.691406 74.5625 -71.601562 74.5625 -74.03125 C 74.5625 -75.957031 73.773438 -77.5625 72.203125 -78.84375 C 70.640625 -80.125 68.554688 -81.15625 65.953125 -81.9375 C 63.347656 -82.726562 60.441406 -83.300781 57.234375 -83.65625 C 54.023438 -84.019531 50.742188 -84.269531 47.390625 -84.40625 C 44.035156 -84.550781 40.898438 -84.625 37.984375 -84.625 Z M 37.984375 -84.625 "/></g></g><g style="fill:#7ed957;fill-opacity:1;"><g transform="translate(179.525877, 133.29903)"><path style="stroke:none" d="M 2.671875 -53.5 C 2.671875 -61.769531 3.671875 -69.273438 5.671875 -76.015625 C 7.671875 -82.753906 10.523438 -88.566406 14.234375 -93.453125 C 17.941406 -98.335938 22.378906 -102.082031 27.546875 -104.6875 C 32.722656 -107.289062 38.484375 -108.59375 44.828125 -108.59375 C 51.097656 -108.59375 56.816406 -107.289062 61.984375 -104.6875 C 67.160156 -102.082031 71.601562 -98.335938 75.3125 -93.453125 C 79.019531 -88.566406 81.875 -82.753906 83.875 -76.015625 C 85.875 -69.273438 86.875 -61.769531 86.875 -53.5 C 86.875 -45.21875 85.875 -37.707031 83.875 -30.96875 C 81.875 -24.226562 79.019531 -18.414062 75.3125 -13.53125 C 71.601562 -8.644531 67.160156 -4.898438 61.984375 -2.296875 C 56.816406 0.304688 51.097656 1.609375 44.828125 1.609375 C 38.484375 1.609375 32.722656 0.304688 27.546875 -2.296875 C 22.378906 -4.898438 17.941406 -8.644531 14.234375 -13.53125 C 10.523438 -18.414062 7.671875 -24.226562 5.671875 -30.96875 C 3.671875 -37.707031 2.671875 -45.21875 2.671875 -53.5 Z M 36.15625 -101.3125 C 33.664062 -101.3125 31.707031 -99.972656 30.28125 -97.296875 C 28.851562 -94.628906 27.890625 -91.007812 27.390625 -86.4375 C 26.890625 -81.875 26.800781 -76.753906 27.125 -71.078125 C 27.445312 -65.410156 28.101562 -59.546875 29.09375 -53.484375 C 30.09375 -47.429688 31.359375 -41.566406 32.890625 -35.890625 C 34.429688 -30.222656 36.179688 -25.101562 38.140625 -20.53125 C 40.097656 -15.96875 42.203125 -12.347656 44.453125 -9.671875 C 46.703125 -7.003906 49.003906 -5.671875 51.359375 -5.671875 C 54.347656 -5.671875 56.734375 -7.003906 58.515625 -9.671875 C 60.296875 -12.347656 61.539062 -15.96875 62.25 -20.53125 C 62.96875 -25.101562 63.21875 -30.222656 63 -35.890625 C 62.789062 -41.566406 62.1875 -47.429688 61.1875 -53.484375 C 60.195312 -59.546875 58.863281 -65.410156 57.1875 -71.078125 C 55.507812 -76.753906 53.582031 -81.875 51.40625 -86.4375 C 49.226562 -91.007812 46.851562 -94.628906 44.28125 -97.296875 C 41.71875 -99.972656 39.007812 -101.3125 36.15625 -101.3125 Z M 36.15625 -101.3125 "/></g></g><g style="fill:#7ed957;fill-opacity:1;"><g transform="translate(269.073706, 133.29903)"><path style="stroke:none" d="M 2.671875 -53.5 C 2.671875 -58.769531 3.171875 -64.046875 4.171875 -69.328125 C 5.171875 -74.609375 6.703125 -79.597656 8.765625 -84.296875 C 10.835938 -89.003906 13.40625 -93.175781 16.46875 -96.8125 C 19.539062 -100.457031 23.160156 -103.332031 27.328125 -105.4375 C 31.503906 -107.539062 36.234375 -108.59375 41.515625 -108.59375 C 44.296875 -108.59375 46.953125 -108.234375 49.484375 -107.515625 C 52.015625 -106.804688 54.613281 -106.09375 57.28125 -105.375 C 59.957031 -104.664062 62.898438 -104.3125 66.109375 -104.3125 C 68.609375 -104.3125 70.585938 -104.664062 72.046875 -105.375 C 73.515625 -106.09375 74.765625 -106.804688 75.796875 -107.515625 C 76.828125 -108.234375 77.878906 -108.59375 78.953125 -108.59375 C 80.378906 -108.59375 81.21875 -107.789062 81.46875 -106.1875 C 81.71875 -104.582031 81.570312 -102.582031 81.03125 -100.1875 C 80.5 -97.800781 79.703125 -95.429688 78.640625 -93.078125 C 77.921875 -91.429688 76.863281 -89.484375 75.46875 -87.234375 C 74.082031 -84.992188 72.40625 -83.050781 70.4375 -81.40625 C 68.476562 -79.769531 66.21875 -78.953125 63.65625 -78.953125 C 59.875 -78.953125 56.503906 -79.378906 53.546875 -80.234375 C 50.585938 -81.085938 47.875 -82.15625 45.40625 -83.4375 C 42.945312 -84.726562 40.59375 -86.015625 38.34375 -87.296875 C 36.101562 -88.578125 33.804688 -89.644531 31.453125 -90.5 C 29.097656 -91.363281 26.53125 -91.796875 23.75 -91.796875 C 21.96875 -91.796875 20.503906 -91.3125 19.359375 -90.34375 C 18.222656 -89.382812 17.332031 -88.191406 16.6875 -86.765625 C 16.050781 -85.335938 15.609375 -83.910156 15.359375 -82.484375 C 15.109375 -81.054688 14.984375 -79.84375 14.984375 -78.84375 C 14.984375 -74.425781 15.535156 -69.703125 16.640625 -64.671875 C 17.742188 -59.640625 19.363281 -54.695312 21.5 -49.84375 C 23.644531 -45 26.300781 -40.578125 29.46875 -36.578125 C 32.644531 -32.585938 36.316406 -29.394531 40.484375 -27 C 44.660156 -24.613281 49.316406 -23.421875 54.453125 -23.421875 C 58.234375 -23.421875 61.390625 -24.097656 63.921875 -25.453125 C 66.453125 -26.816406 68.46875 -28.566406 69.96875 -30.703125 C 71.46875 -32.835938 72.535156 -35.132812 73.171875 -37.59375 C 73.816406 -40.0625 74.140625 -42.398438 74.140625 -44.609375 C 74.140625 -47.742188 73.890625 -50.164062 73.390625 -51.875 C 72.890625 -53.59375 71.851562 -54.453125 70.28125 -54.453125 C 69.351562 -54.453125 68.460938 -53.953125 67.609375 -52.953125 C 66.753906 -51.953125 65.84375 -50.738281 64.875 -49.3125 C 63.914062 -47.894531 62.796875 -46.453125 61.515625 -44.984375 C 60.234375 -43.523438 58.644531 -42.296875 56.75 -41.296875 C 54.863281 -40.296875 52.566406 -39.796875 49.859375 -39.796875 C 45.785156 -39.796875 42.410156 -40.597656 39.734375 -42.203125 C 37.066406 -43.804688 35.054688 -45.925781 33.703125 -48.5625 C 32.347656 -51.207031 31.671875 -54.132812 31.671875 -57.34375 C 31.671875 -58.976562 32.132812 -60.5625 33.0625 -62.09375 C 33.988281 -63.632812 35.164062 -64.40625 36.59375 -64.40625 C 37.15625 -64.40625 37.828125 -64.132812 38.609375 -63.59375 C 39.398438 -63.0625 40.382812 -62.507812 41.5625 -61.9375 C 42.738281 -61.375 44.179688 -61.09375 45.890625 -61.09375 C 47.679688 -61.09375 49.304688 -61.335938 50.765625 -61.828125 C 52.222656 -62.328125 53.664062 -62.878906 55.09375 -63.484375 C 56.519531 -64.097656 58.140625 -64.65625 59.953125 -65.15625 C 61.773438 -65.65625 63.972656 -65.90625 66.546875 -65.90625 C 68.546875 -65.90625 70.613281 -65.472656 72.75 -64.609375 C 74.882812 -63.753906 76.703125 -62.382812 78.203125 -60.5 C 79.703125 -58.613281 80.453125 -56.097656 80.453125 -52.953125 L 80.453125 -25.78125 C 79.523438 -22.570312 78.097656 -19.363281 76.171875 -16.15625 C 74.242188 -12.945312 71.816406 -9.984375 68.890625 -7.265625 C 65.972656 -4.554688 62.601562 -2.398438 58.78125 -0.796875 C 54.96875 0.804688 50.707031 1.609375 46 1.609375 C 40.007812 1.609375 34.394531 0.46875 29.15625 -1.8125 C 23.914062 -4.101562 19.316406 -7.53125 15.359375 -12.09375 C 11.398438 -16.65625 8.296875 -22.394531 6.046875 -29.3125 C 3.796875 -36.226562 2.671875 -44.289062 2.671875 -53.5 Z M 2.671875 -53.5 "/></g></g></g></svg>